<svg width="296" height="71" viewBox="0 0 296 71" fill="none" xmlns="http://www.w3.org/2000/svg">
<g clip-path="url(#clip0_42_219)">
<path d="M80.1522 35.8825C79.5887 35.1744 79.5112 34.748 80.1212 33.9856C85.6789 27.0417 91.1849 20.0539 96.7038 13.079C96.572 12.7637 96.2851 12.8386 96.0447 12.8386C91.9759 12.8464 87.9097 12.8619 83.841 12.8748C78.9993 19.2321 74.1577 25.5868 69.316 31.9441C69.2152 32.1456 69.0937 32.5281 68.8585 32.1689C68.6982 31.926 68.8068 31.5022 68.8068 31.1585C68.7965 25.0622 68.7861 18.9685 68.7784 12.8722C65.162 12.8515 61.5482 12.8283 57.9318 12.8076L57.9241 12.8154C57.9318 26.9745 57.9396 41.1363 57.9499 55.2955C57.9499 56.2 57.9654 57.1019 57.9732 58.0064C61.5741 58.0089 65.1723 58.0115 68.7732 58.0141C68.7835 51.8274 68.7913 45.6381 68.8042 39.4514C68.8042 39.1076 68.6956 38.6838 68.8559 38.4409C69.0912 38.0817 69.2126 38.4642 69.3135 38.6657C74.0336 44.8447 78.7641 51.0159 83.4584 57.2156C83.9263 57.8332 84.389 58.0684 85.1568 58.058C88.6413 58.0167 92.1258 58.0399 95.6104 58.0399C96.223 58.0399 96.8357 58.0399 97.6447 58.0399C91.7045 50.5068 85.9452 43.1779 80.1497 35.8799L80.1522 35.8825Z" fill="#001A66"/>
<path d="M36.5205 19.7931C34.5197 16.2656 32.1958 12.937 29.6729 9.75064C27.1913 6.61593 24.552 3.62077 21.8895 0.638533C21.0391 -0.312476 20.6281 -0.097982 19.9973 0.61269C18.984 1.75235 17.994 2.91527 16.9755 4.05234C13.8348 7.54626 10.9163 11.2211 8.30808 15.1207C5.62488 19.1341 3.28548 23.3775 1.67246 27.918C0.0284174 32.5335 -0.426538 37.3454 0.410993 42.2684C0.951252 45.4445 2.26442 48.2096 4.3841 50.5044C8.2357 54.6729 13.3643 56.363 18.7979 57.2158C19.6406 57.3476 19.8035 57.575 19.6794 58.2805C19.6897 62.1569 19.6975 66.0333 19.7078 69.9097C19.7828 71.0648 20.5092 71.2974 21.9438 70.6281C21.9722 66.6328 22.0498 62.6376 21.9955 58.6423C21.98 57.4354 22.1842 56.7558 23.5362 56.9393C26.1573 56.3371 28.7475 55.6962 31.2859 54.7375C34.499 53.5254 36.9625 51.4839 38.9142 48.8014C40.8658 46.1164 41.3311 42.8369 41.8455 39.6841C42.1971 37.5366 41.9127 35.2935 41.4448 33.0865C40.4548 28.3987 38.8754 23.9434 36.5205 19.7931ZM21.7732 6.82525C21.7267 6.27481 21.7293 5.71402 21.781 5.16616C21.8249 4.69841 22.0498 4.87414 22.2385 5.10672C24.932 8.1639 27.6101 11.2263 29.8435 14.6607C30.376 15.4799 30.9395 16.3405 31.6039 17.0667C32.4621 18.0074 32.2475 18.5966 31.2962 19.2194C30.9964 19.4158 30.8077 19.7827 30.5673 20.0722C30.5647 22.0931 30.575 24.114 30.5414 26.1349C30.5363 26.5122 30.8129 27.0006 30.2803 27.2719C29.4195 27.7345 28.7914 28.8535 27.486 28.179C28.2408 27.5329 28.2434 26.6569 28.2305 25.7498C28.2046 23.7289 28.2434 21.7054 28.2098 19.6845C28.1994 19.0566 28.3132 18.7465 29.0421 18.7904C30.2442 18.8602 30.4871 17.9092 30.5207 17.0434C30.5595 16.0872 29.6574 16.0226 28.9853 15.9503C28.0443 15.8495 27.3852 16.2501 27.411 17.3174C27.4188 17.6792 27.2404 17.8678 26.9793 18.0358C26.9638 19.0411 26.9535 20.0463 26.9328 21.0516C26.9251 21.3979 26.9483 21.8579 26.4287 21.3411C26.1677 21.1731 25.904 21.0025 25.6429 20.8345C25.1207 20.2479 25.418 19.5424 25.3973 18.8963C25.3482 17.307 25.3792 15.7151 25.3767 14.1232C24.3504 13.0662 22.9494 12.4615 21.9981 11.3141C21.4578 9.84109 21.8947 8.31637 21.768 6.82267L21.7732 6.82525ZM23.8774 31.4662C24.3918 30.9261 24.9062 30.386 25.5085 29.7528C25.7773 31.7479 26.4494 32.4094 28.1503 32.4973C28.0702 33.1149 27.4188 33.2597 27.168 33.7093C26.2374 34.2107 25.3043 34.19 24.3659 33.7274C23.9678 33.0245 24.7847 32.058 23.8774 31.4636V31.4662ZM26.2504 39.9322C27.137 41.0616 29.0421 41.1236 30.0529 40.0149C30.6267 39.3895 31.0119 39.4205 31.5651 39.9426C32.5189 40.8393 33.4986 41.705 34.5223 42.6328C33.4133 43.116 32.7567 42.594 32.1183 42.01C30.65 41.8859 29.1533 42.3175 27.7083 41.7645C25.6558 40.754 23.8541 39.5472 24.0893 36.8595H26.7674C25.9764 37.8364 25.3922 38.8391 26.2504 39.9322ZM26.8837 38.6246C26.8682 37.6968 27.4963 37.5392 28.1503 37.5883C29.0499 37.5547 29.541 37.8106 29.5359 38.7331C29.5307 39.679 28.9413 39.6996 28.2511 39.7022C27.4886 39.7022 26.8966 39.5084 26.8837 38.6246ZM28.078 31.4352C27.2353 31.4765 26.5166 30.9648 26.514 30.3214C26.5115 29.5823 27.2482 29.0706 28.1193 29.068C28.9879 29.0757 29.2645 29.5332 29.2851 30.3627C29.3058 31.2775 28.7862 31.399 28.078 31.4352ZM24.839 23.9253C24.2005 23.9021 23.4043 23.9486 23.3345 23.0312C23.2673 22.1603 23.9317 21.9148 24.6451 21.8424C25.3818 21.77 25.8962 22.0259 25.9273 23.0518C26.0307 23.7057 25.5162 23.9486 24.839 23.9253ZM21.1632 24.7058C21.8766 24.5455 22.2954 24.9849 22.2643 25.7472C22.2385 26.3778 21.9257 26.8895 21.1218 26.8171C20.2765 26.7396 19.4183 26.5742 19.4752 25.5301C19.5269 24.6205 20.3747 24.729 21.1632 24.7058ZM20.1369 8.49986C20.2481 8.62648 20.2145 8.89783 20.2145 9.10457C20.217 13.7666 20.2145 18.4312 20.2171 23.0932C20.2171 23.4808 20.2868 23.9072 19.682 23.8814C18.7565 24.6334 18.3197 26.0858 18.8134 26.7835C19.501 27.7526 21.114 28.1299 22.148 27.551C23.2001 26.9618 23.0553 25.9359 23.0579 24.9694C22.7994 24.6153 22.5384 24.2613 22.2799 23.9098L22.1558 23.9331L22.0343 23.9046C21.7112 23.8891 21.7603 23.6462 21.7603 23.4446C21.7603 20.3099 21.7603 17.1726 21.7732 14.0379C21.7732 13.795 21.5509 13.136 22.2488 13.6244C22.8098 14.1826 23.6189 14.5108 23.8696 15.3585C24.2212 17.1881 24.278 19.0152 23.8308 20.8397C22.6702 21.4263 22.0239 22.2869 22.329 23.654C22.9907 23.6695 23.0502 24.3362 23.4198 24.6722C23.456 24.6954 23.4948 24.7239 23.5362 24.76C24.7123 25.3001 25.6946 24.7523 26.6769 24.2018C27.0853 25.0572 27.1189 25.9126 26.6614 26.7628C25.997 27.8766 25.0148 28.6648 23.9678 29.3833C23.5051 29.7011 22.9778 30.019 22.7839 29.0964C22.7064 28.7217 22.3807 28.8122 22.1687 28.8457C20.9822 29.0292 19.6484 28.316 18.6066 29.4996C18.299 29.8484 17.9113 29.4505 17.6243 29.1895C16.7609 28.3935 16.1018 27.3753 15.0238 26.8171C14.4836 25.4655 14.9334 24.0571 14.7912 22.6797C14.7731 22.4962 14.8868 22.3257 15.0859 22.473C15.2048 22.5582 15.2384 22.7572 15.3108 22.9071C16.2827 23.685 17.4149 23.6876 18.4153 23.194C19.6871 22.5686 19.4881 20.527 18.1542 19.5269C17.8466 19.4933 17.888 19.2556 17.8906 19.0566C17.9035 16.2087 17.9216 13.3583 17.9397 10.5104C18.2059 9.6085 19.0771 9.27514 19.669 8.68075C19.7647 8.44817 19.956 8.30604 20.1369 8.51019V8.49986ZM15.4917 31.5825C15.8459 31.0941 15.9984 30.4609 16.2414 29.8924C18.1672 30.5307 17.6424 32.089 17.6114 33.4612C16.7635 33.9316 15.9182 33.9264 15.073 33.4535C14.6258 33.0322 14.1786 32.6084 13.5944 32.058C14.3207 31.8564 15.1014 32.12 15.4891 31.5825H15.4917ZM12.5112 29.8407C12.4854 29.1688 13.1239 28.8354 13.8373 28.8225C14.6051 28.8096 15.0394 29.099 15.0574 29.926C15.073 30.6315 14.7912 30.9752 14.0545 30.9183C13.3255 30.8641 12.5423 30.6625 12.5112 29.8381V29.8407ZM15.6184 21.4341C15.5925 20.6355 16.2284 20.2014 16.9807 20.3254C17.8854 20.2893 18.4024 20.5348 18.4179 21.4444C18.4334 22.3722 17.7691 22.5996 17.1073 22.6177C16.368 22.6358 15.6416 22.1758 15.6184 21.4367V21.4341ZM6.69506 23.225C8.84834 19.0023 11.4488 15.0665 14.4215 11.3839C14.8713 10.8283 15.0032 9.99614 15.7812 9.70929C17.0401 8.08896 18.2835 6.45571 19.8035 4.9465C20.155 5.84324 19.8526 6.27481 19.3071 6.74773C18.2473 7.66772 17.066 8.48435 16.306 9.71188C16.3163 12.7355 16.3318 15.759 16.3293 18.78C16.3293 19.0359 16.5024 19.4003 16.063 19.5166C15.9854 19.5502 15.9079 19.6018 15.8278 19.6122C15.3676 19.6716 15.1944 20.8216 14.4267 19.8887C14.0338 19.4106 13.478 19.1806 13.4393 18.3872C13.3746 17.0021 12.214 17.5732 11.4695 17.4879C10.632 17.3923 10.3786 17.8781 10.3838 18.6715C10.389 19.5476 10.6811 20.1084 11.6194 20.0541C12.3303 20.0127 12.8654 20.2195 13.248 20.8164C13.8063 21.5271 13.4393 22.3412 13.478 23.1035C13.5504 24.4939 13.5065 25.8919 13.5116 27.2849C13.6848 27.3986 13.889 27.4864 13.8968 27.7397C13.4858 27.7164 13.1213 28.1971 12.6483 27.7319C11.6685 26.7732 10.5932 25.9126 9.61091 24.959C8.91038 24.2794 8.20985 23.747 7.1526 23.9201C6.58908 24.0132 6.36935 23.8581 6.69506 23.2198V23.225ZM3.33718 41.9996C3.01664 41.8653 3.21827 41.55 3.16399 41.3226C2.79692 39.8108 2.87189 38.2705 2.89515 36.7407C2.94944 33.2726 3.77146 29.9647 5.14666 26.7964C6.06433 24.6799 6.62785 24.5895 8.38822 26.1478C9.25935 26.9179 10.1176 27.7009 10.9887 28.4684C11.4747 28.8948 12.1028 29.2722 11.211 29.957C10.3761 28.9827 8.96208 28.7295 7.83762 27.9542C7.16036 27.489 5.48529 27.98 5.0536 28.6442C4.67103 29.2334 5.51373 30.5178 6.40813 30.6392C6.77519 30.6883 7.30253 30.7297 7.52225 30.5229C8.94399 29.1843 9.60057 30.5824 10.3838 31.306C11.6892 32.5051 12.7517 33.9884 14.4965 34.6474C15.3754 34.9782 16.2776 34.743 17.1668 34.8076C17.4537 34.8283 17.7717 34.9188 17.7872 35.1539C17.8104 35.5054 17.4692 35.5752 17.1564 35.5752C13.9692 35.5752 10.7767 35.6915 7.60239 35.4847C6.89152 35.4382 6.07467 35.0454 5.25782 35.0531C4.6245 35.0583 3.92656 34.9472 3.92397 35.9654C3.92397 36.9267 4.4694 37.4152 5.2785 37.6116C5.98419 37.7821 6.60459 37.4798 7.05179 36.8854C7.23532 36.5649 7.55069 36.6011 7.84537 36.6011C11.1852 36.5985 14.5249 36.5959 17.8647 36.5959C18.1594 36.5959 18.4748 36.5546 18.6661 36.8673C17.7226 37.1206 17.539 37.5935 17.7277 38.6194C17.919 39.6609 16.6679 39.9064 15.8484 40.7592C15.9751 39.8909 16.2181 39.3508 16.0682 38.79C15.8872 38.1181 15.3185 37.8519 14.7602 37.6632C13.5349 37.2472 12.3381 37.8312 11.6246 38.7874C11.0999 39.4903 11.9167 40.1467 11.4488 40.7514C9.80478 41.1468 8.15815 41.1081 6.51153 40.7669C5.4672 40.524 4.67878 40.9556 3.99376 41.6973C3.83091 41.873 3.64221 42.1289 3.34494 42.0048L3.33718 41.9996ZM13.9847 40.7308C13.2583 40.7178 12.5655 40.6093 12.4828 39.741C12.3975 38.8701 12.9946 38.3998 13.7675 38.3765C14.4448 38.3558 15.1841 38.5316 15.0497 39.5575C15.1557 40.3405 14.8274 40.7463 13.9847 40.7333V40.7308ZM14.8222 53.758C12.4337 53.0577 10.177 51.9646 8.21502 50.4269C6.51153 49.0934 5.22163 47.3413 4.23417 45.4134C3.82833 44.6227 3.80765 43.7828 4.7796 43.222C5.21646 42.9713 5.57318 42.5785 5.9661 42.2503C6.92771 41.7257 7.9617 42.0927 8.95691 42.0307C10.1977 41.9505 11.4462 41.979 12.6922 41.9609C13.2273 41.5293 13.8399 41.8704 14.6051 41.7076C13.3979 43.3124 12.1028 44.266 10.146 44.0903C9.54111 44.036 9.27745 43.6019 8.86902 43.3202C8.1168 42.8033 6.86308 43.054 6.37194 43.8138C5.94025 44.4779 6.37711 45.6641 7.29477 45.9846C8.16332 46.2869 8.90263 45.9561 9.36534 45.124C10.6707 44.5942 12.0201 44.925 13.3539 44.9095C13.3539 44.9095 13.3695 44.9767 13.3591 45.0026C13.3436 45.0413 13.3074 45.0697 13.2816 45.1033C12.9378 46.3877 13.721 47.1733 14.543 47.9409C15.758 47.9736 16.3568 48.5818 16.3396 49.7653C17.614 51.2435 18.8884 52.7217 20.2455 54.2981C18.2809 54.6961 16.518 54.2568 14.8222 53.758ZM14.3673 45.8528C14.344 45.1576 15.0368 44.5529 15.8329 44.6123C16.5335 44.664 17.2366 44.9509 17.3943 45.8037C17.2624 46.809 16.5593 47.1475 15.727 47.2018C14.8403 47.2586 14.3854 46.4342 14.3647 45.8528H14.3673ZM19.4674 45.5117C19.4105 44.5839 20.124 44.3306 20.9072 44.3306C21.7318 44.3306 22.3316 44.6692 22.2773 45.5969C22.2307 46.3722 21.7267 46.6978 20.7185 46.6565C20.2145 46.6074 19.5217 46.349 19.47 45.5091L19.4674 45.5117ZM38.2343 43.8138C36.4584 48.9591 32.7568 52.0188 27.654 53.5745C26.0358 54.0681 24.3737 54.262 22.7064 54.3963C21.8533 54.4635 21.3648 53.603 21.874 52.913C22.3652 52.2514 22.9442 51.626 23.593 51.1221C25.2138 49.8635 25.2397 49.8946 26.7906 51.1531C27.6101 51.8172 29.0344 51.7475 29.8151 51.0058C30.3398 50.507 30.4949 48.7497 30.0684 48.1373C29.51 47.3361 27.5739 47.163 26.5942 47.9383C25.9169 48.4732 25.2862 48.7859 24.3814 48.7652C23.4043 48.742 23.0295 49.8429 22.254 50.2615C21.9774 50.644 21.7732 50.644 21.768 50.1323C21.7603 49.4035 21.7991 48.6748 21.8171 47.9434C21.8249 47.7884 21.6957 47.6101 21.9128 47.4912C23.2027 46.7754 23.73 45.5556 23.1949 44.5245C22.6573 43.483 21.3027 43.129 20.0258 43.4882C19.0331 43.7673 18.604 44.4444 18.3921 45.2894C18.1181 46.38 18.9116 46.9563 19.6768 47.5015C20.0361 47.4938 20.23 47.6411 20.2274 48.0287C20.2171 49.0521 20.2274 50.078 20.2196 51.1014C20.2196 51.2901 20.2662 51.5847 19.9275 51.4632C19.819 51.4244 19.7828 51.1867 19.7156 51.042C18.1775 49.8635 17.4873 48.4939 18.1336 46.4575C18.6557 44.8087 17.6993 43.8267 15.9415 43.8164C15.5331 43.8164 15.1272 43.8164 14.4603 43.8164C15.4943 42.8809 16.306 42.0849 17.1849 41.3665C17.8027 40.8626 18.498 40.462 18.7798 41.7283C18.8082 41.8549 19.0357 41.9376 19.1727 42.041C20.3773 42.0229 21.5793 42.0048 22.7839 41.9893C22.8434 41.5345 22.6418 41.0435 23.35 40.7825C24.0247 40.5344 24.3478 40.8884 24.6529 41.2605C25.9712 42.8654 27.5248 43.4029 29.6031 42.8524C31.0171 42.4777 31.9477 43.3047 32.095 44.7726C32.1932 45.7365 33.0644 45.8657 33.5426 45.814C34.2431 45.7365 35.1556 45.5323 35.2099 44.4082C35.2306 43.9637 34.7885 43.222 35.2642 43.1264C36.1663 42.9429 37.1434 43.0644 38.0818 43.1471C38.3817 43.1729 38.3015 43.6045 38.2291 43.8112L38.2343 43.8138ZM26.938 49.4501C26.9018 48.5146 27.6282 48.5714 28.0547 48.481C28.9026 48.4267 29.2774 48.68 29.2722 49.4165C29.267 50.1452 28.9517 50.5949 28.2201 50.538C27.5868 50.4889 26.969 50.2693 26.9354 49.4475L26.938 49.4501ZM39.0615 39.5601C39.0382 40.2914 38.9012 41.0486 38.5548 41.7335C37.7018 42.1805 36.8462 42.1754 35.9905 41.7386C34.1604 39.8444 32.201 38.1232 29.691 37.0146C31.6633 37.1826 33.6227 36.1721 35.4942 37.4203C36.1069 37.8286 36.9134 37.764 37.4847 37.1206C37.9836 36.5598 38.0068 35.8491 37.5157 35.3865C36.779 34.6913 35.7579 34.8955 34.985 35.2676C34.6412 35.433 34.331 35.5597 33.9872 35.5597C31.061 35.5752 28.1322 35.5726 25.206 35.5622C24.8157 35.5622 24.1876 35.7225 24.1953 35.1488C24.2005 34.7275 24.8131 34.7482 25.1802 34.8154C27.3929 35.2211 29.0628 34.3218 30.4587 32.6989C30.7095 32.4094 31.0326 32.182 31.3221 31.9262C32.1906 31.5101 33.0669 31.5825 33.9458 31.8823C34.7265 32.7376 35.7553 32.4844 36.6937 32.4094C37.2288 32.3655 37.3502 31.7634 37.2598 31.3034C37.1331 30.6625 37.009 29.9363 36.1456 29.8459C35.502 29.7787 34.8609 29.7761 34.4111 30.3782C33.1161 30.9028 31.8055 30.7297 30.4949 30.4583C29.9288 29.8226 30.0477 29.329 30.7715 28.9026C31.8701 28.254 32.2527 27.3029 32.1441 26.0108C32.0252 24.605 32.1829 23.1759 32.095 21.7649C32.0355 20.8113 32.3923 20.2324 33.2169 19.837C35.5976 23.2715 36.8384 27.1763 38.1025 31.0966C39.002 33.8825 39.152 36.7019 39.0615 39.5627V39.5601Z" fill="#001A66"/>
<path d="M209.646 49.282C204.531 49.2743 199.413 49.22 194.299 49.2898C193.053 49.3079 192.813 48.9021 192.847 47.7728C192.924 45.2842 192.914 42.7878 192.849 40.2965C192.826 39.3636 193.144 39.1543 194.023 39.1595C198.536 39.1879 203.05 39.1543 207.565 39.144C207.565 36.4098 207.563 33.6757 207.56 30.9441C203.106 30.9338 198.653 30.9286 194.199 30.9002C193.759 30.8976 193.242 31.1121 192.898 30.6159C192.898 27.6259 192.893 24.6359 192.891 21.6485C193.237 21.1575 193.754 21.3643 194.193 21.3643C199.338 21.3462 204.482 21.3487 209.628 21.3462C209.631 18.5164 209.633 15.6866 209.636 12.8569C201.111 12.8491 192.583 12.8414 184.058 12.831C183.37 12.831 182.68 12.8155 181.992 12.8052L181.985 12.8129C181.992 27.1892 182.003 41.5628 182.01 55.9391C182.01 56.6265 182.026 57.3165 182.034 58.0039C190.983 58.0168 199.929 58.0168 208.879 58.0608C209.649 58.0633 209.685 57.7377 209.68 57.1511C209.652 54.5281 209.654 51.9076 209.644 49.2846L209.646 49.282Z" fill="#001A66"/>
<path d="M207.638 39.092C207.638 39.1126 207.638 39.1333 207.635 39.154L207.69 39.1592C207.69 39.1592 207.811 39.1462 207.814 39.1462C207.754 39.0816 207.697 39.0661 207.64 39.092H207.638Z" fill="#001A66"/>
<path d="M207.639 39.0923C207.615 39.1026 207.589 39.1207 207.566 39.1491L207.636 39.1543C207.636 39.1336 207.636 39.113 207.639 39.0923Z" fill="#001A66"/>
<path d="M207.617 30.8818C207.617 30.8818 207.617 30.9025 207.617 30.9128C207.63 30.9025 207.641 30.8895 207.653 30.8714C207.687 30.8223 207.661 30.7655 207.576 30.7061C207.576 30.7577 207.568 30.8094 207.563 30.8611C207.581 30.8663 207.599 30.8714 207.615 30.8792L207.617 30.8818Z" fill="#001A66"/>
<path d="M207.617 30.8819C207.599 30.8741 207.581 30.8715 207.566 30.8638C207.563 30.8896 207.566 30.918 207.558 30.9439C207.578 30.9439 207.599 30.931 207.617 30.9129C207.617 30.9025 207.617 30.8922 207.617 30.8819Z" fill="#001A66"/>
<path d="M295.99 16.1027C295.99 15.0276 295.977 13.9526 295.969 12.8775C292.368 12.8723 288.767 12.8672 285.166 12.862C285.156 13.3763 285.143 13.8931 285.135 14.4074C284.975 23.4962 285.417 32.5903 284.9 41.6791C284.611 46.7856 278.445 50.0986 273.627 47.7315C270.778 46.3334 269.478 44.0696 269.315 41.015C269.333 31.8486 269.346 22.6822 269.383 13.5184C269.385 12.7561 269.08 12.5726 268.382 12.5777C265.024 12.6113 261.664 12.6113 258.306 12.6217C258.241 12.6501 258.203 12.6811 258.187 12.7121C258.172 12.7483 258.187 12.7845 258.231 12.8258C258.246 12.8388 258.267 12.8543 258.29 12.8698C258.277 21.8165 258.267 30.7658 258.252 39.7125C258.252 40.1415 258.221 40.5705 258.205 40.9969C258.164 43.0927 258.59 45.1162 259.278 47.0725C261.299 52.8173 265.921 57.4819 274.25 58.3218C275.992 58.7016 277.737 58.7197 279.479 58.3321C280.459 58.3218 281.379 57.991 282.328 57.8101C290.168 56.3034 295.819 49.7937 295.997 41.5215C295.995 33.0477 295.992 24.5765 295.987 16.1027H295.99Z" fill="#001A66"/>
<path d="M134.855 40.5238C134.01 37.4821 131.671 35.4689 128.918 34.0476C125.901 32.4919 122.67 31.4659 119.462 30.3805C117.774 29.8094 116.083 29.1608 114.633 28.078C113.328 27.1011 112.702 25.7392 113.054 24.1473C113.382 22.6588 114.331 21.5036 115.869 21.1237C119.309 20.2735 121.69 21.6173 122.856 24.9536C122.685 25.9201 123.396 25.7392 123.918 25.7392C127.183 25.7495 130.448 25.747 133.716 25.7444C135.161 25.7444 135.194 25.6849 134.755 24.1654C134.589 23.3849 134.481 22.5864 134.253 21.824C133.062 17.8339 130.358 15.1696 126.591 13.6604C122.313 11.947 117.846 11.655 113.297 12.4458C110.733 12.8928 108.424 13.8826 106.299 15.3711C101.207 18.9374 100.054 26.1139 102.613 31.2023C103.957 33.877 106.227 35.624 108.933 36.8412C112.227 38.322 115.698 39.2936 119.103 40.4514C120.457 40.9114 121.69 41.5885 122.747 42.5757C124.5 44.2141 124.203 47.7209 121.969 48.8347C119.839 49.8969 117.64 49.902 115.535 48.8347C113.876 47.9897 113.24 46.3874 112.984 44.6224C109.461 44.6146 105.937 44.6405 102.414 44.5759C101.533 44.5604 101.297 44.9041 101.334 45.6613C101.548 48.5918 102.691 51.1296 104.702 53.2487C108 56.7219 112.216 58.1226 116.867 58.4999C118.082 58.4999 118.244 58.5619 119.459 58.5645C119.444 58.6239 121.269 58.5645 121.786 58.5645C123.965 58.5645 125.56 57.66 127.506 56.7503C134.245 53.6053 136.704 47.1808 134.855 40.5263V40.5238Z" fill="#001A66"/>
<path d="M242.827 42.0874C242.463 41.462 241.793 40.7513 241.886 40.1854C242 39.5005 243.086 39.6453 243.722 39.3584C248.279 37.3065 250.859 33.7971 251.582 28.8844C251.81 27.5535 251.81 26.5198 251.577 24.9408C251.523 24.5713 251.337 24.2276 251.288 23.8606C250.784 20.1754 248.788 17.4723 245.756 15.4617C243.135 13.7225 240.17 13.0558 237.086 12.7974C230.264 12.8025 223.445 12.8051 216.623 12.8103L216.615 12.818C216.623 27.1943 216.634 41.5679 216.641 55.9442C216.641 56.6316 216.657 57.3216 216.665 58.009C220.265 58.0116 223.864 58.0142 227.465 58.0168C227.475 52.7681 227.475 47.5221 227.511 42.2735C227.514 41.86 227.209 41.3302 227.762 41.0072C229.481 40.6428 230.497 41.2346 231.347 42.8885C233.818 47.6926 236.528 52.3727 239.102 57.1226C239.48 57.8204 239.896 58.0917 240.695 58.0633C242.414 57.9987 244.138 58.0426 245.857 58.0426C247.891 58.0426 249.928 58.0426 252.13 58.0426C248.951 52.5976 245.88 47.3438 242.819 42.0874H242.827ZM240.392 28.3624C240.002 31.6651 238.177 32.6833 235.537 33.0166C232.994 33.3216 230.45 33.4534 227.912 33.0166C227.855 33.014 227.801 33.0115 227.744 33.0089C227.684 33.0657 227.622 33.0502 227.555 32.9546C227.537 29.4348 227.519 25.9125 227.503 22.3927C227.503 22.1912 227.47 21.9508 227.777 21.9198C230.6 21.9095 233.428 21.6898 236.238 22.124C239.474 22.6227 240.772 25.1062 240.389 28.3624H240.392Z" fill="#001A66"/>
<path d="M227.757 32.9909C227.77 32.9753 227.78 32.965 227.793 32.9443C227.775 32.9443 227.757 32.9443 227.736 32.9469C227.677 32.9521 227.615 32.9573 227.555 32.9547C227.617 32.9676 227.677 32.9753 227.739 32.9883C227.744 32.9883 227.752 32.9883 227.757 32.9909Z" fill="#001A66"/>
<path d="M176.109 24.8349C175.411 19.2478 172.275 15.7693 167.17 13.8647C165.394 13.2032 163.499 13.0016 161.623 12.7871C155.06 12.7949 148.496 12.8 141.93 12.8078L141.923 12.8155C141.93 27.2331 141.941 41.6533 141.949 56.0709C141.949 56.717 141.964 57.3605 141.972 58.0065C145.573 58.0091 149.171 58.0117 152.772 58.0143C152.782 53.0292 152.782 48.0416 152.818 43.0566C152.821 42.6508 152.506 42.1159 153.082 41.8084C156.908 41.5448 160.757 42.1236 164.577 41.2734C169.82 40.1028 173.744 37.4616 175.54 32.2052C176.362 29.8045 176.422 27.3727 176.106 24.8349H176.109ZM159.643 32.9418C157.458 33.027 155.269 32.9469 153.082 32.9418C152.697 32.8746 152.811 32.5619 152.811 32.3345C152.803 28.9775 152.803 25.6206 152.811 22.2662C152.811 22.0414 152.697 21.7287 153.085 21.6615C155.272 21.6537 157.469 21.5038 159.643 21.6692C162.714 21.9018 164.515 23.1112 165.001 25.972C165.001 26.8558 165.001 27.7396 165.001 28.6235C164.453 31.3705 162.724 32.8229 159.643 32.9418Z" fill="#001A66"/>
<path d="M8.67773 36.7352C11.5884 36.7172 14.4991 36.7223 17.4098 36.7352C17.8285 36.7352 18.268 36.6164 18.6635 36.8645C18.4722 36.5518 18.1568 36.5931 17.8621 36.5931C14.5223 36.5931 11.1826 36.5931 7.84278 36.5983C7.54551 36.5983 7.23273 36.5647 7.04919 36.8826C7.56877 36.5828 8.13488 36.7404 8.67773 36.7378V36.7352Z" fill="#001A66"/>
<path d="M17.4072 36.7354C14.4965 36.7251 11.5858 36.7199 8.67516 36.7354C8.13232 36.738 7.56621 36.5829 7.04663 36.8801C10.9189 36.875 14.7886 36.8672 18.6609 36.862C18.2654 36.614 17.826 36.7328 17.4072 36.7328V36.7354Z" fill="#001A66"/>
<path d="M6.50122 40.764C8.14785 41.1078 9.79448 41.1465 11.4385 40.7485C9.79189 40.9217 8.14785 40.901 6.50122 40.764Z" fill="#001A66"/>
<path d="M11.4411 40.7515C9.79445 40.7566 8.14783 40.7618 6.50378 40.767C8.15041 40.9039 9.79704 40.9272 11.4411 40.7515Z" fill="#001A66"/>
<path d="M27.7109 41.7642C29.1534 42.3172 30.6526 41.8856 32.1209 42.0097C30.6656 41.6582 29.1663 42.1105 27.7109 41.7642Z" fill="#001A66"/>
<path d="M27.7109 41.7643C29.1663 42.1106 30.6656 41.6583 32.1209 42.0098C30.6785 41.4413 29.1766 41.9168 27.7109 41.7643Z" fill="#001A66"/>
<path d="M13.279 45.1084C13.3049 45.0748 13.3411 45.0438 13.3566 45.0076C13.3669 44.9792 13.3566 44.9145 13.3514 44.9145C12.0201 44.9301 10.6682 44.5993 9.36279 45.129C10.6656 44.9042 11.971 44.93 13.2764 45.1109L13.279 45.1084Z" fill="#001A66"/>
<path d="M9.36536 45.1265C10.6708 45.1214 11.9736 45.1136 13.279 45.1085C11.9736 44.9276 10.6682 44.9017 9.36536 45.1265Z" fill="#001A66"/>
<path d="M16.213 49.4318C16.1897 49.5635 16.2673 49.6669 16.3371 49.7703C16.3543 48.5867 15.7555 47.9785 14.5405 47.9458C14.6362 48.0233 14.7344 48.1112 14.8688 48.0879C15.9674 47.8889 16.4146 48.3334 16.213 49.4318Z" fill="#001A66"/>
<path d="M24.366 33.73C25.3043 34.1926 26.2375 34.2107 27.1681 33.7119C26.2349 33.991 25.3017 33.9626 24.366 33.73Z" fill="#001A66"/>
<path d="M27.1681 33.709C26.2349 33.7142 25.2991 33.7219 24.366 33.7271C25.3017 33.9571 26.2349 33.9855 27.1681 33.709Z" fill="#001A66"/>
<path d="M23.4224 24.6696C23.0554 24.3362 22.9933 23.6669 22.3316 23.6514C22.3962 23.7547 22.3807 23.84 22.2825 23.9098C22.541 24.2638 22.8021 24.6179 23.0605 24.9693C23.0605 24.6024 23.1846 24.5093 23.4224 24.667V24.6696Z" fill="#001A66"/>
<path d="M23.5362 24.7572C23.4948 24.721 23.4561 24.6926 23.4199 24.6693C23.1821 24.5117 23.058 24.6047 23.058 24.9717C23.164 24.7856 23.3294 24.7262 23.5336 24.7572H23.5362Z" fill="#001A66"/>
<path d="M22.3311 23.6514C22.3157 23.7366 22.2978 23.8245 22.2825 23.9098C22.3796 23.84 22.3975 23.7522 22.3311 23.6514Z" fill="#001A66"/>
<path d="M33.9459 31.8872C33.067 31.59 32.1881 31.5177 31.3221 31.9312C32.1933 31.7296 33.0696 31.8019 33.9459 31.8872Z" fill="#001A66"/>
<path d="M31.3221 31.9311C32.1959 31.9156 33.0722 31.9026 33.9459 31.8871C33.0696 31.8019 32.1933 31.7295 31.3221 31.9311Z" fill="#001A66"/>
<path d="M15.073 33.4561C15.9183 33.929 16.7636 33.9341 17.6114 33.4638C16.7636 33.7171 15.9183 33.7326 15.073 33.4561Z" fill="#001A66"/>
<path d="M17.6114 33.4638L15.073 33.4561C15.9183 33.7326 16.7636 33.7171 17.6114 33.4638Z" fill="#001A66"/>
<path d="M35.9932 41.7435C36.8488 42.1802 37.7018 42.1879 38.5575 41.7383C37.7044 41.9838 36.8488 41.9735 35.9932 41.7435Z" fill="#001A66"/>
<path d="M38.5549 41.7383C37.6993 41.7383 36.8462 41.7409 35.9906 41.7435C36.8462 41.9735 37.6993 41.9838 38.5549 41.7383Z" fill="#001A66"/>
</g>
<defs>
<clipPath id="clip0_42_219">
<rect width="296" height="71" fill="white"/>
</clipPath>
</defs>
</svg>
